<svg width="27" height="26" fill="none" xmlns="http://www.w3.org/2000/svg"><path d="M19.48 15.13c-1.11-1.03-1.2-1.03-.24-2.2 1.19-1.5 2.77-3.4 1.34-3.4h-2.61c-.48 0-.55.32-.71.71-.64 1.5-1.9 3.47-2.38 3.15-.47-.31-.24-1.5-.24-3.38a.61.61 0 00-.15-.63c-.16-.16-.4-.32-.64-.32-.4-.08-.79-.16-1.19-.16-1.5 0-2.53.63-1.98.71 1.03.16.95 2.37.72 3.31-.4 1.66-1.98-1.26-2.7-2.76a.77.77 0 00-.79-.63H5.85c-.31 0-.55.08-.55.32 0 .4 1.98 4.25 3.8 6.22 1.82 1.9 3.64 1.74 4.91 1.74a.6.6 0 00.4-.16.6.6 0 00.15-.4c0-1.26.48-1.89 1.35-1.02.95.95 1.19 1.58 2.38 1.58h2.14c.55 0 .7-.16.7-.4.09-.55-.86-1.57-1.65-2.28zM13.85 0C21.22.16 27.08 6.07 27 13.24 26.92 20.4 20.82 26.08 13.46 26 6 25.92.07 20.17.07 13 .15 5.75 6.33-.08 13.85 0z" fill="#CDCDCD"/></svg>