<svg width="27" height="26" fill="none" xmlns="http://www.w3.org/2000/svg"><path d="M13.85 10.96c1.02 0 1.8-.84 1.79-1.75a1.77 1.77 0 00-1.77-1.76c-.98 0-1.79.78-1.79 1.74 0 .97.8 1.77 1.77 1.77z" fill="#CDCDCD"/><path d="M13.7 0A13.1 13.1 0 00.54 13c0 7.19 5.9 13 13.16 13 7.28 0 13.17-5.83 13.17-13 .02-7.17-5.89-13-13.17-13zm.19 4.92a4.3 4.3 0 014.3 4.3 4.29 4.29 0 01-4.38 4.24A4.31 4.31 0 019.54 9.2a4.3 4.3 0 014.35-4.27zm4.83 10.03l-.02.1c-.05.36-.24.66-.56.87a7.52 7.52 0 01-2.45 1.02c-.07.02-.07.02-.01.07l1.03 1.02 1.32 1.3c.62.62.45 1.64-.34 2-.13.08-.28.1-.43.14H17c-.02 0-.04 0-.04-.02a1.4 1.4 0 01-.77-.39l-2.27-2.25c-.06-.05-.06-.05-.12 0l-2.3 2.27c-.12.13-.25.22-.42.3-.12.05-.25.07-.36.09h-.25l-.09-.02c-.5-.1-.85-.37-1-.85-.15-.49-.03-.91.32-1.27l.94-.93 1.4-1.37c.05-.06.05-.06-.02-.07l-.08-.02a8.18 8.18 0 01-2.35-.99 1.19 1.19 0 01-.58-1.19c.1-.92 1.15-1.43 1.94-.92l.45.24a5.41 5.41 0 004.15.3 7.7 7.7 0 001.26-.58 1.27 1.27 0 011.9.96v.19z" fill="#CDCDCD"/></svg>