<svg xmlns="http://www.w3.org/2000/svg" width="201" height="52" fill="none">
  <path fill="#fff" d="M76.94 24.34c0-.73-.2-1.27-.57-1.64a6.22 6.22 0 00-2.01-1.16c-1.78-.67-3.06-1.46-3.85-2.37a4.8 4.8 0 01-1.17-3.22c0-1.5.53-2.7 1.59-3.6a6.02 6.02 0 014.05-1.37c1.1 0 2.07.23 2.92.7a4.7 4.7 0 011.97 1.94c.46.84.7 1.79.7 2.86h-3.59c0-.83-.17-1.47-.53-1.9-.35-.44-.86-.66-1.53-.66a1.9 1.9 0 00-1.46.57c-.35.36-.53.86-.53 1.49 0 .48.2.93.59 1.33.39.39 1.08.8 2.07 1.22 1.74.62 3 1.4 3.77 2.3a5.12 5.12 0 011.19 3.48c0 1.55-.5 2.76-1.48 3.63a5.85 5.85 0 01-4.01 1.3c-1.15 0-2.2-.23-3.14-.7a5.35 5.35 0 01-3.02-5.14h3.6c0 1.02.2 1.77.6 2.23.4.46 1.05.7 1.96.7 1.25 0 1.88-.67 1.88-2zM86 15.79l.1 1.22a3.72 3.72 0 013.06-1.46c1.32 0 2.25.6 2.8 1.78a3.62 3.62 0 013.23-1.78c2.3 0 3.5 1.6 3.55 4.8V29h-3.46v-8.44c0-.76-.1-1.3-.31-1.63-.21-.33-.57-.49-1.08-.49-.64 0-1.12.4-1.44 1.18l.03.42V29h-3.46v-8.41c0-.76-.1-1.3-.3-1.64-.2-.34-.57-.5-1.09-.5-.6 0-1.06.31-1.41.96V29h-3.46V15.8h3.24zM107.59 29c-.1-.2-.2-.55-.3-1.03a2.95 2.95 0 01-2.51 1.27c-1.1 0-2.03-.36-2.76-1.1a3.87 3.87 0 01-1.08-2.84 4 4 0 011.31-3.2c.89-.77 2.16-1.15 3.82-1.17h1.05v-1.06c0-.6-.1-1.01-.3-1.26-.2-.24-.5-.36-.9-.36-.86 0-1.29.5-1.29 1.5h-3.45c0-1.21.45-2.22 1.37-3 .92-.8 2.08-1.2 3.48-1.2 1.44 0 2.56.38 3.35 1.13.8.75 1.2 1.83 1.2 3.23v6.2a6.5 6.5 0 00.49 2.68V29h-3.48zm-2.04-2.47c.38 0 .7-.07.98-.23.26-.15.46-.34.6-.55v-2.74h-.84a1.8 1.8 0 00-1.39.56c-.33.37-.5.87-.5 1.5 0 .98.38 1.46 1.15 1.46zm14.05-7.4l-1.15-.1c-.94 0-1.58.41-1.92 1.24V29h-3.46V15.8h3.26l.1 1.42c.54-1.11 1.3-1.67 2.25-1.67.4 0 .71.05.96.16l-.04 3.41zm6.4-6.59v3.25h1.78v2.6H126v6.56c0 .52.07.88.2 1.07.15.2.43.3.84.3.33 0 .6-.03.81-.1l-.02 2.7c-.59.21-1.22.32-1.9.32-2.23 0-3.36-1.27-3.39-3.83V18.4h-1.52v-2.6h1.52v-3.25h3.46zM135.63 29V11.23h4.7c2.07 0 3.72.66 4.95 1.97 1.24 1.32 1.87 3.13 1.9 5.42v2.88c0 2.34-.63 4.18-1.86 5.51S142.38 29 140.2 29h-4.6zm3.58-14.78v11.8h1.08c1.2 0 2.04-.31 2.53-.94.48-.63.74-1.72.76-3.27v-3.09c0-1.66-.23-2.81-.7-3.47-.46-.65-1.25-1-2.36-1.03h-1.3zm15.71 15.02a5.41 5.41 0 01-4.15-1.58c-.99-1.06-1.49-2.57-1.49-4.54v-1.05c0-2.09.46-3.7 1.37-4.83a4.74 4.74 0 013.92-1.7c1.66 0 2.9.54 3.75 1.6.84 1.06 1.26 2.64 1.28 4.72v1.7h-6.87c.05.97.26 1.69.64 2.14.39.45.98.68 1.77.68 1.16 0 2.12-.4 2.9-1.19l1.35 2.09a4.5 4.5 0 01-1.84 1.43 6.4 6.4 0 01-2.63.53zm-2.17-8.1h3.46v-.32a3.69 3.69 0 00-.4-1.8c-.24-.4-.66-.6-1.26-.6s-1.05.21-1.32.64a4.53 4.53 0 00-.48 2.08zm12.97 2.98l1.67-8.33h3.6L167.35 29h-3.3l-3.63-13.2h3.61l1.68 8.32zM176.23 29h-3.47V15.8h3.47V29zm-3.63-16.63c0-.53.17-.97.52-1.31.34-.35.8-.52 1.36-.52.57 0 1.03.17 1.37.52.34.34.51.78.51 1.31s-.17.97-.51 1.32a1.8 1.8 0 01-1.37.53c-.58 0-1.04-.18-1.38-.53-.33-.35-.5-.79-.5-1.32zm11.07 14c1 0 1.51-.65 1.53-1.95h3.25a4.85 4.85 0 01-1.33 3.5c-.88.88-2 1.32-3.37 1.32-1.7 0-3-.52-3.9-1.58-.9-1.06-1.35-2.62-1.36-4.68v-1.05c0-2.07.44-3.66 1.31-4.75.9-1.09 2.2-1.63 3.92-1.63 1.46 0 2.6.45 3.44 1.35.84.9 1.27 2.17 1.29 3.82h-3.25c0-.74-.13-1.3-.37-1.7-.23-.4-.62-.6-1.17-.6-.6 0-1.03.21-1.3.64-.25.43-.4 1.25-.4 2.48v1.34c0 1.08.05 1.83.15 2.26.1.43.28.74.53.94.24.2.59.3 1.03.3zm12.06 2.87a5.41 5.41 0 01-4.15-1.58c-.99-1.06-1.49-2.57-1.49-4.54v-1.05c0-2.09.46-3.7 1.37-4.83a4.74 4.74 0 013.92-1.7c1.66 0 2.91.54 3.75 1.6.84 1.06 1.26 2.64 1.28 4.72v1.7h-6.87c.05.97.26 1.69.64 2.14.39.45.98.68 1.77.68 1.16 0 2.12-.4 2.9-1.19l1.35 2.09a4.5 4.5 0 01-1.84 1.43 6.4 6.4 0 01-2.63.53zm-2.17-8.1h3.46v-.32a3.68 3.68 0 00-.4-1.8c-.24-.4-.66-.6-1.26-.6s-1.05.21-1.32.64a4.5 4.5 0 00-.48 2.08z"/>
  <path fill="#788891" d="M70.95 44.96l1.29-4.3h1.51l-2.52 7.3c-.38 1.07-1.04 1.6-1.96 1.6-.21 0-.44-.03-.69-.1v-1.1l.27.01c.36 0 .63-.07.8-.2.2-.13.34-.35.44-.65l.2-.55-2.22-6.31h1.54l1.34 4.3zm7.4.29l1.87-4.59H82V47h-1.43v-4.2L78.83 47h-.97l-1.75-4.22V47h-1.42v-6.34h1.79l1.86 4.59zM88.96 47h-1.42v-2.56h-2.47V47h-1.42v-6.34h1.42v2.64h2.47v-2.64h1.42V47zm3.05-4.32h1.4c.52 0 .97.09 1.36.27a1.97 1.97 0 011.18 1.88c0 .65-.23 1.18-.7 1.57-.45.4-1.06.6-1.83.6H90.6v-6.34h1.42v2.02zM98.44 47h-1.42v-6.34h1.42V47zm-6.42-3.18v2.04h1.4c.34 0 .61-.08.81-.25.2-.18.3-.43.3-.75s-.1-.57-.3-.75c-.19-.2-.45-.29-.79-.3h-1.42zm10.92 3.3c-.9 0-1.63-.29-2.2-.85a3.11 3.11 0 01-.84-2.28v-.17c0-.63.13-1.2.37-1.7s.59-.88 1.03-1.16c.44-.28.93-.42 1.48-.42.86 0 1.53.28 2 .83.47.55.7 1.33.7 2.34v.57h-4.14c.04.52.22.94.52 1.24.31.3.7.46 1.16.46.65 0 1.19-.26 1.6-.79l.76.73c-.25.38-.6.68-1.02.89-.42.2-.9.3-1.42.3zm-.17-5.43c-.4 0-.7.13-.95.4-.24.28-.39.66-.46 1.15h2.72v-.1a1.71 1.71 0 00-.39-1.09 1.18 1.18 0 00-.92-.36zm11.8.1h-2.06V47h-1.42v-5.2h-2.03v-1.14h5.51v1.13zm3.37 5.33c-.9 0-1.63-.29-2.2-.85a3.11 3.11 0 01-.84-2.28v-.17c0-.63.13-1.2.37-1.7s.59-.88 1.03-1.16c.44-.28.93-.42 1.48-.42.86 0 1.53.28 2 .83.47.55.7 1.33.7 2.34v.57h-4.14c.04.52.22.94.52 1.24.31.3.7.46 1.16.46.65 0 1.19-.26 1.6-.79l.76.73c-.25.38-.6.68-1.02.89-.42.2-.9.3-1.42.3zm-.17-5.43c-.4 0-.7.13-.95.4-.24.28-.39.66-.46 1.15h2.72v-.1a1.71 1.71 0 00-.39-1.09 1.18 1.18 0 00-.92-.36zm6.1 1.06l1.2-2.09h1.59l-1.94 3.12 2 3.22h-1.57l-1.26-2.17-1.26 2.17h-1.58l2-3.22-1.94-3.12h1.58l1.18 2.09zM133 47h-1.43v-2.56h-2.46V47h-1.43v-6.34h1.43v2.64h2.46v-2.64H133V47zm1.25-3.23c0-.62.13-1.18.37-1.67.25-.5.6-.89 1.04-1.15.44-.27.96-.4 1.53-.4.86 0 1.55.27 2.08.82.54.55.83 1.28.87 2.19v.33c0 .63-.11 1.19-.36 1.68-.24.5-.58.87-1.03 1.14-.44.27-.96.4-1.54.4-.9 0-1.62-.29-2.16-.88-.53-.6-.8-1.4-.8-2.39v-.07zm1.43.12c0 .66.13 1.17.4 1.54.27.37.64.55 1.13.55.48 0 .85-.19 1.11-.56.27-.38.4-.93.4-1.65a2.5 2.5 0 00-.4-1.52 1.31 1.31 0 00-1.13-.56c-.46 0-.83.18-1.1.55-.28.37-.41.92-.41 1.65zm10.97-3.23V47h-1.43v-5.2h-1.8l-.1 2.22a4.57 4.57 0 01-.63 2.29c-.33.46-.84.69-1.52.69h-.44v-1.18l.28-.03c.32-.05.54-.24.68-.57.15-.34.24-.96.28-1.85l.12-2.71h4.56zm1.24 3.11c0-.62.13-1.18.37-1.67.25-.5.6-.89 1.04-1.15.44-.27.96-.4 1.53-.4.86 0 1.55.27 2.08.82.54.55.83 1.28.87 2.19v.33c0 .63-.11 1.19-.36 1.68-.23.5-.58.87-1.03 1.14-.44.27-.96.4-1.54.4-.9 0-1.62-.29-2.16-.88-.53-.6-.8-1.4-.8-2.39v-.07zm1.43.12c0 .66.13 1.17.4 1.54.27.37.65.55 1.13.55.48 0 .85-.19 1.12-.56.26-.38.4-.93.4-1.65 0-.64-.14-1.15-.42-1.52a1.31 1.31 0 00-1.12-.56c-.46 0-.83.18-1.1.55-.28.37-.41.92-.41 1.65zm9.9-2.08h-2.76V47h-1.42v-6.34h4.17v1.15zm4.76-1.15h1.42V47h-1.42v-4.23L161.49 47h-1.42v-6.34h1.42v4.23l2.49-4.23zm6.89 0h1.41V47h-1.41v-4.23L168.38 47h-1.41v-6.34h1.41v4.23l2.49-4.23z"/>
  <path fill="#00B2FF" d="M32.07 13.87a2.6 2.6 0 012.44 1.73h8.98a2.6 2.6 0 110 1.73h-8.98a2.6 2.6 0 11-2.44-3.46zm13.86 3.46a.87.87 0 100-1.73.87.87 0 000 1.73zm-13.86 0a.87.87 0 100-1.73.87.87 0 000 1.73z"/>
  <path fill="#00B2FF" d="M25.13 19.23v-5.36c0-.23.1-.45.26-.62l3.46-3.46a.86.86 0 01.62-.26h2.76a2.6 2.6 0 110 1.74h-2.4l-2.96 2.96v5a2.6 2.6 0 11-1.74 0zm9.54-7.96a.87.87 0 100-1.74.87.87 0 000 1.74zM26 22.53a.87.87 0 100-1.73.87.87 0 000 1.73zM9.53 22.53c.4 0 .78.1 1.12.26l1.48-1.48V13c0-.23.1-.45.26-.61l8.67-8.68A2.6 2.6 0 1123.4 5.2c-.4 0-.77-.1-1.11-.26l-8.42 8.42v8.3c0 .24-.1.46-.26.62l-1.74 1.74a2.6 2.6 0 11-2.34-1.49zM23.4 3.47a.87.87 0 100-1.74.87.87 0 000 1.74zM9.53 26a.87.87 0 100-1.74.87.87 0 000 1.74zM1.73 12.3V8.66c0-.23.1-.45.26-.62L8.05 2a.86.86 0 01.62-.26h4.49a2.6 2.6 0 110 1.74H9.03L3.47 9.03v3.26a2.6 2.6 0 11-1.74 0zM15.6 3.46a.87.87 0 100-1.74.87.87 0 000 1.74zM2.6 15.6a.87.87 0 100-1.74.87.87 0 000 1.74zM13.87 46.96V34.51a2.6 2.6 0 113.3-3.31h8.99a2.6 2.6 0 012.44-1.73 2.6 2.6 0 012.44 1.73h5l3.22-3.22a2.6 2.6 0 112.34 1.49c-.4 0-.77-.1-1.11-.26L37 32.68a.86.86 0 01-.61.25h-5.36a2.6 2.6 0 01-2.44 1.74 2.6 2.6 0 01-2.44-1.74h-8.99a2.6 2.6 0 01-1.57 1.58v12.45a2.6 2.6 0 11-1.73 0zM41.6 27.73a.87.87 0 100-1.73.87.87 0 000 1.73zm-13 5.2a.87.87 0 100-1.73.87.87 0 000 1.73zM14.73 50.27a.87.87 0 100-1.74.87.87 0 000 1.74zm0-17.34a.87.87 0 100-1.73.87.87 0 000 1.73z"/>
  <path fill="#00B2FF" d="M18.2 17.5v-2.77c0-.23.1-.45.25-.61l10.41-10.4A2.6 2.6 0 0131.2 0a2.6 2.6 0 012.44 1.72h3.63c.48 0 .86.4.86.87v2.24l3.22 3.22a2.6 2.6 0 11-1.49 2.34c0-.4.1-.77.27-1.11L36.65 5.8a.86.86 0 01-.25-.61V3.47h-2.76a2.6 2.6 0 01-3.55 1.47L19.93 15.09v2.4a2.6 2.6 0 11-1.73 0zm24.27-6.23a.87.87 0 100-1.74.87.87 0 000 1.74zM31.2 3.47a.87.87 0 100-1.74.87.87 0 000 1.74zM19.07 20.8a.87.87 0 100-1.74.87.87 0 000 1.74z"/>
  <path fill="#00B2FF" d="M20.8 24.27A2.6 2.6 0 0123.24 26h10.2l4.95-4.95a.86.86 0 01.61-.25h9.17l2.1-2.1v-7.07l-6.69-6.7c-.34.17-.71.27-1.11.27a2.6 2.6 0 112.6-2.6c0 .4-.1.77-.26 1.11l6.94 6.94c.16.17.25.39.25.62v7.8c0 .23-.1.45-.25.6l-2.6 2.6a.86.86 0 01-.62.26h-9.17l-4.95 4.95a.86.86 0 01-.61.25H23.24a2.6 2.6 0 11-2.44-3.46zM42.47 1.73a.87.87 0 100 1.74.87.87 0 000-1.74zm-21.67 26a.87.87 0 100-1.73.87.87 0 000 1.73zM2.6 20.8c.4 0 .77.1 1.11.26l3.22-3.22v-5a2.6 2.6 0 111.74 0v5.36c0 .23-.1.45-.26.61L4.94 22.3a2.56 2.56 0 01-1.47 3.55v.67l6.68 6.68c.16.16.25.38.25.61v1.03a2.6 2.6 0 011.73 2.44 2.6 2.6 0 01-1.73 2.44v2.05a2.6 2.6 0 11-1.73 0v-2.05a2.6 2.6 0 01-1.74-2.44 2.6 2.6 0 011.74-2.44v-.67l-6.68-6.68a.86.86 0 01-.26-.61v-1.03a2.6 2.6 0 01.87-5.04zm5.2-9.53a.87.87 0 100-1.74.87.87 0 000 1.74zm1.73 33.8a.87.87 0 100-1.74.87.87 0 000 1.74zm0-6.94a.87.87 0 100-1.73.87.87 0 000 1.73zM2.6 24.27a.87.87 0 100-1.74.87.87 0 000 1.74z"/>
</svg>
