<svg xmlns="http://www.w3.org/2000/svg" width="2188" height="1273" fill="none"><path stroke="#EBEBEB" d="M593.2 559.74v549.35L117.47 834.41 593.2 559.74z"/><circle cx="116.74" cy="834.15" r="5" fill="#F2F2F2" transform="rotate(-30 116.74 834.15)"/><circle cx="592.9" cy="1108.88" r="5" fill="#F2F2F2" transform="rotate(-30 592.9 1108.88)"/><circle cx="593.05" cy="559.15" r="5" fill="#F2F2F2" transform="rotate(-30 593.05 559.15)"/><path stroke="#EBEBEB" d="M721.6 1.38v256.4l-222.05-128.2L721.59 1.38zm1242.96 672.4v-256.4l222.05 128.2-222.05 128.2zm-355.94-137.15L1132.87 811.3V261.95l475.75 274.68z"/><circle cx="1132.74" cy="261.2" r="5" fill="#F2F2F2" transform="rotate(30 1132.74 261.2)"/><circle cx="1132.9" cy="810.93" r="5" fill="#F2F2F2" transform="rotate(30 1132.9 810.93)"/><circle cx="1609.05" cy="536.2" r="5" fill="#F2F2F2" transform="rotate(30 1609.05 536.2)"/></svg>