<svg xmlns="http://www.w3.org/2000/svg" xmlns:xlink="http://www.w3.org/1999/xlink"><symbol id="icon-arrow-right"><path d="M1 8.5l4-4-4-4" stroke="#fff" stroke-linejoin="round"/></symbol><symbol id="icon-check-mark"><path d="M.5 2l3 3L8 .5" stroke="#fff"/></symbol><symbol id="icon-checkbox"><path stroke="#fff" d="M.5.5h15v15H.5z"/></symbol><symbol id="icon-detective"><path d="M18 9.76a.7.7 0 00-.7.7c0 .4.31.71.7.71a.7.7 0 00.7-.7.7.7 0 00-.7-.71z" fill="#00B2FF"/><path d="M33.9 14h-2.75C29.71 9.87 27.62 2.6 23.83.54c-1.9-1.03-3.69-.31-4.36 1.15a1.6 1.6 0 01-1.47.94 1.6 1.6 0 01-1.47-.94c-.65-1.41-2.4-2.2-4.23-1.3-3.85 1.88-6 9.45-7.45 13.63H2.1a2.12 2.12 0 000 4.25h31.78c1.17 0 2.11-.96 2.11-2.13s-.95-2.12-2.1-2.12zM7.31 11.18h7.87a.7.7 0 00.7-.7.7.7 0 00-.7-.71H7.8c2.12-5.9 4.1-7.61 5.1-8.1 1.11-.55 2.02-.1 2.35.62A3 3 0 0018 4.04a3 3 0 002.74-1.76c.34-.73 1.25-1.14 2.42-.5 1.02.55 3 2.32 5.03 7.98h-7.38a.7.7 0 00-.7.7c0 .4.31.71.7.71h7.88l.97 2.84H6.34l.98-2.84zm26.57 5.67H2.11a.7.7 0 01-.7-.7c0-.4.31-.72.7-.72h31.78c.39 0 .7.32.7.71 0 .4-.31.7-.7.7zM16.6 21.09H5.33a.7.7 0 00-.7.7v2.84a6.32 6.32 0 0012.24 2.27c.71-.33 1.53-.33 2.24 0a6.32 6.32 0 0012.24-2.27V21.8a.7.7 0 00-.7-.71H19.4a.7.7 0 00-.7.7v.71h-1.4v-.7a.7.7 0 00-.7-.71zm-5.63 8.5a4.94 4.94 0 01-4.92-4.96V22.5h9.84v2.13c0 2.74-2.2 4.95-4.92 4.95zm9.14-7.09h9.84v2.13a4.93 4.93 0 11-9.84 0V22.5zm-1.4 1.42v.7c0 .23 0 .46.03.68a4.09 4.09 0 00-1.48 0c.02-.22.04-.45.04-.67v-.71h1.4z" fill="#00B2FF"/><path d="M10.97 26.75c-1.16 0-2.11-.95-2.11-2.12a.7.7 0 00-.7-.71.7.7 0 00-.7.7 3.53 3.53 0 003.5 3.55.7.7 0 00.71-.71.7.7 0 00-.7-.7zm14.06 1.42a3.53 3.53 0 003.52-3.54.7.7 0 00-.7-.71.7.7 0 00-.7.7c0 1.18-.96 2.13-2.12 2.13a.7.7 0 00-.7.71c0 .39.31.7.7.7z" fill="#00B2FF"/></symbol><symbol id="icon-envelope"><path d="M16.68 0H2.323C1.042 0 0 1.009 0 2.25v9.5C0 12.991 1.042 14 2.323 14h14.354C17.958 14 19 12.991 19 11.75V2.253C19.004 1.013 17.962 0 16.68 0zm1.262 11.75c0 .674-.566 1.222-1.262 1.222H2.323c-.695 0-1.262-.548-1.262-1.222V2.253c0-.673.567-1.221 1.262-1.221h14.354c.695 0 1.262.548 1.262 1.221v9.497h.003z" fill="#00B2FF"/><path d="M11.983 6.882l4.646-4.035a.505.505 0 00.04-.727.546.546 0 00-.751-.038L9.51 7.651 8.26 6.57c-.004-.004-.008-.008-.008-.012a.78.78 0 00-.087-.072L3.078 2.078a.542.542 0 00-.75.042.502.502 0 00.043.727l4.702 4.07L2.39 11.16a.504.504 0 00-.023.727.541.541 0 00.75.027l4.754-4.305L9.16 8.724a.54.54 0 00.708-.004l1.325-1.15 4.725 4.348c.102.095.236.14.366.14a.537.537 0 00.385-.16.504.504 0 00-.02-.726l-4.666-4.29z" fill="#00B2FF"/></symbol><symbol id="icon-facebook"><path fill-rule="evenodd" clip-rule="evenodd" d="M27 13.5a13.5 13.5 0 10-27 0 13.5 13.5 0 0027 0zM16.88 9.3h-1.74c-.46 0-.8.4-.8.88v.78h2.5l-.41 2.52h-2.08v6.74H11.8v-6.74h-1.69v-2.52h1.7V9.68c.04-1.47.55-2.86 3.03-2.95h2.04v2.56z" fill="#CDCDCD"/></symbol><symbol id="icon-hired"><path d="M31.26 27.9c.38-.53.6-1.16.6-1.85v-4.1c0-.38-.3-.69-.68-.69h-3.06a2.56 2.56 0 00-2.56 2.56v2.23c0 .69.22 1.32.6 1.84a4.4 4.4 0 00-1.34.45 5.82 5.82 0 00-4.3-2.56h-.01a4.02 4.02 0 001.03-2.7V17.5c0-.38-.31-.68-.69-.68H16.7a3.24 3.24 0 00-3.24 3.23v3.03c0 1.04.4 1.98 1.03 2.7h-.02a5.82 5.82 0 00-4.3 2.56 4.4 4.4 0 00-1.33-.45c.38-.52.6-1.15.6-1.84v-4.1c0-.38-.3-.69-.68-.69H5.7a2.56 2.56 0 00-2.56 2.56v2.23c0 .69.22 1.32.6 1.84A4.46 4.46 0 000 32.3v2.03c0 .37.3.68.68.68h33.64c.37 0 .68-.3.68-.68V32.3a4.46 4.46 0 00-3.74-4.4zM4.51 23.81c0-.66.53-1.2 1.19-1.2h2.37v.84c0 .4-.33.74-.74.74H4.51v-.38zm0 1.75h2.82c.26 0 .51-.05.74-.14v.62a1.78 1.78 0 01-3.56 0v-.48zm2.22 3.63l-.44.44-.44-.44h.88zm2.47 2.36v2.07H1.37V32.3a3.1 3.1 0 012.59-3.05L5.8 31.1a.68.68 0 00.96 0l1.85-1.85c.33.05.64.16.94.31-.24.63-.36 1.3-.36 2.01zm8.3-5.8a2.67 2.67 0 01-2.67-2.68v-.9h4.09c.45 0 .88-.12 1.25-.32v1.22c0 1.47-1.2 2.67-2.67 2.67zm1.2 1.36l-1.2 1.19-1.2-1.2h2.4zm-3.87-7.07c0-1.03.84-1.87 1.87-1.87h3.47v1.38c0 .7-.56 1.25-1.25 1.25h-4.09v-.76zm9.6 13.58H10.57v-1.36h4.45a.68.68 0 100-1.37h-4.4a4.45 4.45 0 013.8-3.74l2.6 2.6a.68.68 0 00.96 0l2.6-2.6a4.45 4.45 0 013.85 4.4v2.07zm2.5-9.8c0-.67.53-1.2 1.2-1.2h2.36v.83c0 .4-.33.74-.74.74h-2.82v-.38zm0 1.74h2.82c.26 0 .51-.05.74-.14v.62a1.78 1.78 0 01-3.56 0v-.48zm2.22 3.63l-.44.44-.44-.44h.88zm-3.35 4.43v-2.07c0-.7-.12-1.38-.36-2 .3-.16.61-.27.94-.32l1.85 1.85a.68.68 0 00.96 0l1.85-1.85a3.1 3.1 0 012.6 3.05v1.34H25.8zM20.87 4.47a.68.68 0 00-.97 0l-3.35 3.35-1.45-1.45a.68.68 0 10-.97.97l1.93 1.93a.68.68 0 00.97 0l3.84-3.84a.68.68 0 000-.96z" fill="#00B2FF"/><path d="M20.3.6a.68.68 0 00-.56 1.24 5.51 5.51 0 11-4.5.01.68.68 0 10-.56-1.24 6.88 6.88 0 002.82 13.13A6.88 6.88 0 0020.3.59z" fill="#00B2FF"/><path d="M17.52 0h-.02a.68.68 0 000 1.37h.02a.68.68 0 000-1.37zm.46 31.1a.69.69 0 00-.96 0 .69.69 0 000 .97.69.69 0 00.96 0 .69.69 0 000-.97z" fill="#00B2FF"/></symbol><symbol id="icon-odnoklassniki"><path d="M13.85 10.96c1.02 0 1.8-.84 1.79-1.75a1.77 1.77 0 00-1.77-1.76c-.98 0-1.79.78-1.79 1.74 0 .97.8 1.77 1.77 1.77z" fill="#CDCDCD"/><path d="M13.7 0A13.1 13.1 0 00.54 13c0 7.19 5.9 13 13.16 13 7.28 0 13.17-5.83 13.17-13 .02-7.17-5.89-13-13.17-13zm.19 4.92a4.3 4.3 0 014.3 4.3 4.29 4.29 0 01-4.38 4.24A4.31 4.31 0 019.54 9.2a4.3 4.3 0 014.35-4.27zm4.83 10.03l-.02.1c-.05.36-.24.66-.56.87a7.52 7.52 0 01-2.45 1.02c-.07.02-.07.02-.01.07l1.03 1.02 1.32 1.3c.62.62.45 1.64-.34 2-.13.08-.28.1-.43.14H17c-.02 0-.04 0-.04-.02a1.4 1.4 0 01-.77-.39l-2.27-2.25c-.06-.05-.06-.05-.12 0l-2.3 2.27c-.12.13-.25.22-.42.3-.12.05-.25.07-.36.09h-.25l-.09-.02c-.5-.1-.85-.37-1-.85-.15-.49-.03-.91.32-1.27l.94-.93 1.4-1.37c.05-.06.05-.06-.02-.07l-.08-.02a8.18 8.18 0 01-2.35-.99 1.19 1.19 0 01-.58-1.19c.1-.92 1.15-1.43 1.94-.92l.45.24a5.41 5.41 0 004.15.3 7.7 7.7 0 001.26-.58 1.27 1.27 0 011.9.96v.19z" fill="#CDCDCD"/></symbol><symbol id="icon-phone-call"><path d="M14.233 11.15c-.369-.383-.814-.588-1.286-.588-.468 0-.917.2-1.3.585l-1.203 1.196c-.099-.053-.198-.102-.293-.152a4.832 4.832 0 01-.377-.201c-1.126-.714-2.15-1.645-3.13-2.85-.476-.6-.796-1.105-1.028-1.618.312-.285.601-.581.883-.866l.32-.323c.798-.798.798-1.831 0-2.629l-1.04-1.037c-.117-.118-.24-.24-.353-.36A17.952 17.952 0 004.71 1.6c-.369-.365-.81-.559-1.274-.559-.464 0-.913.194-1.294.559l-.007.007L.84 2.91a2.778 2.778 0 00-.825 1.767c-.092 1.11.236 2.142.487 2.819.616 1.66 1.537 3.198 2.91 4.847a17.9 17.9 0 005.962 4.662c.875.414 2.043.904 3.348.987.08.004.163.008.24.008.878 0 1.617-.315 2.195-.942.004-.008.011-.012.015-.02.198-.239.426-.455.666-.687.163-.156.33-.319.494-.49.377-.391.575-.847.575-1.314 0-.471-.202-.924-.586-1.303l-2.089-2.094zm1.362 4c-.004 0-.004.005 0 0-.148.16-.3.305-.464.464a9.977 9.977 0 00-.734.76c-.384.41-.837.604-1.43.604-.058 0-.119 0-.176-.004-1.13-.072-2.18-.513-2.967-.889a16.898 16.898 0 01-5.616-4.391C2.911 10.132 2.043 8.689 1.47 7.139c-.354-.946-.483-1.683-.426-2.379.038-.444.21-.813.525-1.128l1.297-1.295c.187-.175.385-.27.579-.27.24 0 .433.144.555.266l.011.011c.233.217.453.44.685.68.118.122.24.243.362.369L6.095 4.43c.404.403.404.775 0 1.178-.11.11-.217.22-.327.326-.32.327-.624.63-.955.927-.007.008-.015.012-.019.02-.327.326-.266.645-.198.862l.012.034c.27.653.65 1.269 1.229 2.002l.003.004c1.05 1.291 2.158 2.298 3.379 3.07.156.098.316.178.468.254.137.068.266.133.377.201.015.008.03.02.045.027.13.064.251.095.377.095.316 0 .513-.198.578-.262l1.301-1.3c.13-.129.335-.285.575-.285.236 0 .43.149.548.278l.007.007 2.097 2.094c.391.387.391.786.003 1.189zM9.728 4.282a4.827 4.827 0 012.626 1.36 4.84 4.84 0 011.362 2.621.51.51 0 00.506.426c.03 0 .057-.004.087-.008a.513.513 0 00.422-.593 5.856 5.856 0 00-1.647-3.172 5.871 5.871 0 00-3.177-1.645.516.516 0 00-.593.418.507.507 0 00.414.593zm8.264 3.658a9.635 9.635 0 00-2.713-5.223 9.659 9.659 0 00-5.23-2.71.512.512 0 10-.168 1.011 8.65 8.65 0 014.676 2.42 8.601 8.601 0 012.423 4.67.51.51 0 00.506.425c.03 0 .057-.004.088-.008a.503.503 0 00.418-.585z" fill="#00B2FF"/></symbol><symbol id="icon-stopwatch"><path d="M3.19 11.66L1.7 10.2c-.8-.8-.8-2.1 0-2.9.8-.8 2.12-.8 2.93 0l1.59 1.57a14.58 14.58 0 015.52-2.3V4.5h-1.38a.69.69 0 01-.7-.68V2.05A2.08 2.08 0 0111.75 0h5.52c1.14 0 2.07.92 2.07 2.05v1.78c0 .38-.3.68-.69.68h-1.38v2.04c1.98.38 3.87 1.17 5.52 2.31l1.59-1.57c.8-.8 2.12-.8 2.93 0 .8.8.8 2.1 0 2.9l-1.49 1.47A14.25 14.25 0 0129 20.64C29 28.56 22.5 35 14.5 35S0 28.56 0 20.64c0-3.27 1.13-6.44 3.19-8.98zm.46-3.4a.7.7 0 00-.97 0 .68.68 0 000 .96l1.43 1.42c.32-.33.65-.64 1-.94L3.65 8.26zm14.3-6.2a.69.69 0 00-.69-.7h-5.52c-.38 0-.7.31-.7.7v1.08h6.91V2.05zM13.12 4.5v1.84a15 15 0 012.76 0V4.51h-2.76zm13.2 3.75a.7.7 0 00-.97 0L23.89 9.7c.35.3.68.6 1 .94l1.43-1.42a.68.68 0 000-.96zM14.5 33.63c7.23 0 13.12-5.82 13.12-12.99a12.9 12.9 0 00-5.18-10.34 13.18 13.18 0 00-17.8 1.77 12.9 12.9 0 00-3.26 8.57c0 7.17 5.89 13 13.12 13z" fill="#fff"/><path d="M14.5 22.7a2.06 2.06 0 01-2.07-2.06c0-.89.58-1.65 1.38-1.93v-4.9c0-.38.3-.69.69-.69.38 0 .7.31.7.69v4.9c.8.28 1.37 1.04 1.37 1.93 0 1.14-.93 2.06-2.07 2.06zm0-2.74a.685.685 0 100 1.37c.38 0 .7-.3.7-.69a.69.69 0 00-.7-.68z" fill="#fff"/><path d="M7.14 13.43a.54.54 0 01.04-.03l.04-.04a10.42 10.42 0 014.35-2.55c.37-.1.75.1.86.46.1.36-.1.74-.47.85-1.2.35-2.33.96-3.3 1.78l.47.46c.27.27.27.7 0 .97a.7.7 0 01-.98 0l-.46-.46a8.76 8.76 0 00-2.14 5.1h.66c.39 0 .7.3.7.67 0 .38-.31.69-.7.69h-.66a8.76 8.76 0 002.14 5.1l.46-.47a.7.7 0 01.98 0c.27.27.27.7 0 .97l-.47.46a8.94 8.94 0 005.15 2.12v-.66c0-.38.3-.69.69-.69.38 0 .7.31.7.69v.65c1.9-.14 3.68-.87 5.14-2.11l-.47-.46a.68.68 0 010-.97.7.7 0 01.98 0l.46.46c1.25-1.43 2-3.2 2.14-5.1h-.66a.69.69 0 01-.7-.68c0-.37.31-.68.7-.68h.66a8.76 8.76 0 00-2.14-5.1l-.46.47a.7.7 0 01-.98 0 .68.68 0 010-.97l.47-.46a9.02 9.02 0 00-3.3-1.78.68.68 0 11.39-1.31 10.41 10.41 0 014.4 2.59l.03.03a10.13 10.13 0 01-.04 14.46l-.03.04a10.34 10.34 0 01-7.29 2.97c-2.75 0-5.33-1.06-7.28-2.97l-.04-.04-.03-.03a10.13 10.13 0 010-14.43z" fill="#fff"/><path d="M14.5 11.76c-.38 0-.7-.3-.7-.69 0-.37.32-.68.7-.68a.685.685 0 110 1.37z" fill="#fff"/></symbol><symbol id="icon-tag"><path d="M11.07 8.58a.69.69 0 00-.97 0 .69.69 0 000 .97.69.69 0 00.97 0 .69.69 0 000-.97z" fill="#00B2FF"/><path d="M34.8 2.86L33.95 2l.85-.84a.68.68 0 00-.97-.97l-.84.84-.83-.83a.68.68 0 00-.49-.2H20.1a3.4 3.4 0 00-2.42 1l-5.77 5.77a.68.68 0 00.96.97l5.78-5.78c.39-.39.9-.6 1.45-.6h11.3l.63.64-2.53 2.54a2.8 2.8 0 10.96.97L33 2.98l.64.64V14.9c0 .55-.22 1.06-.6 1.45L16.33 33.03a2.04 2.04 0 01-2.9 0L1.97 21.56a2.04 2.04 0 010-2.9l7.37-7.37a.68.68 0 00-.97-.97L1 17.69a3.4 3.4 0 000 4.84L12.47 34a3.41 3.41 0 004.84 0L34 17.32c.65-.65 1-1.5 1-2.42V3.34a.68.68 0 00-.2-.48zm-5.74 5.1a1.42 1.42 0 01-2.03 0 1.43 1.43 0 011.43-2.38l-.8.79a.68.68 0 00.97.96l.8-.78c.13.48.01 1.03-.37 1.41z" fill="#00B2FF"/><path d="M29.2 13.76L21.23 5.8a2.71 2.71 0 00-3.82 0L4.8 18.4a2.69 2.69 0 000 3.83l7.97 7.97a2.69 2.69 0 003.82 0L29.2 17.6a2.69 2.69 0 000-3.84zm-.97 2.87l-12.6 12.6a1.33 1.33 0 01-1.9 0l-7.96-7.96a1.33 1.33 0 010-1.9l12.6-12.6a1.34 1.34 0 011.9 0l7.96 7.96a1.33 1.33 0 010 1.9z" fill="#00B2FF"/><path d="M22.29 13.68a.68.68 0 00-.97-.97l-.39.4a2.63 2.63 0 00-3.25.28c-.5.5-.75 1.18-.72 1.9a2.88 2.88 0 00.85 1.9c.55.55.62 1.38.14 1.85-.47.48-1.3.42-1.86-.13-.55-.55-.6-1.39-.13-1.86a.68.68 0 00-.97-.97c-.85.85-.94 2.2-.29 3.25l-.47.47a.68.68 0 00.97.97l.47-.47c.46.29.97.43 1.48.43.65 0 1.29-.24 1.77-.72 1-1 .94-2.7-.14-3.79a1.51 1.51 0 01-.45-1c-.02-.33.1-.64.31-.86.48-.47 1.31-.41 1.86.14s.61 1.38.14 1.86a.68.68 0 00.97.96c.85-.85.94-2.2.29-3.25l.39-.4zm-6.92 11.33l-3.5-3.51a.68.68 0 00-.98.97l3.52 3.5a.68.68 0 00.96 0 .68.68 0 000-.96zm-5.38-5.38a.69.69 0 00-.97 0 .69.69 0 000 .96.69.69 0 00.97 0 .69.69 0 000-.96z" fill="#00B2FF"/></symbol><symbol id="icon-vk"><path d="M19.48 15.13c-1.11-1.03-1.2-1.03-.24-2.2 1.19-1.5 2.77-3.4 1.34-3.4h-2.61c-.48 0-.55.32-.71.71-.64 1.5-1.9 3.47-2.38 3.15-.47-.31-.24-1.5-.24-3.38a.61.61 0 00-.15-.63c-.16-.16-.4-.32-.64-.32-.4-.08-.79-.16-1.19-.16-1.5 0-2.53.63-1.98.71 1.03.16.95 2.37.72 3.31-.4 1.66-1.98-1.26-2.7-2.76a.77.77 0 00-.79-.63H5.85c-.31 0-.55.08-.55.32 0 .4 1.98 4.25 3.8 6.22 1.82 1.9 3.64 1.74 4.91 1.74a.6.6 0 00.4-.16.6.6 0 00.15-.4c0-1.26.48-1.89 1.35-1.02.95.95 1.19 1.58 2.38 1.58h2.14c.55 0 .7-.16.7-.4.09-.55-.86-1.57-1.65-2.28zM13.85 0C21.22.16 27.08 6.07 27 13.24 26.92 20.4 20.82 26.08 13.46 26 6 25.92.07 20.17.07 13 .15 5.75 6.33-.08 13.85 0z" fill="#CDCDCD"/></symbol></svg>